<svg width="20" height="24" viewBox="0 0 20 24" fill="none" xmlns="http://www.w3.org/2000/svg">
<path d="M16.9412 4.23529H10.5882V2.60716C10.8002 2.48714 10.977 2.31356 11.1009 2.10378C11.2248 1.894 11.2914 1.65537 11.2941 1.41176C11.2941 1.03734 11.1454 0.678253 10.8806 0.413496C10.6159 0.148739 10.2568 0 9.88235 0C9.50793 0 9.14884 0.148739 8.88408 0.413496C8.61933 0.678253 8.47059 1.03734 8.47059 1.41176C8.4733 1.65537 8.53993 1.894 8.66381 2.10378C8.78768 2.31356 8.96446 2.48714 9.17647 2.60716V4.23529H2.82353C2.07495 4.23615 1.35727 4.5339 0.827938 5.06323C0.298608 5.59256 0.00085566 6.31024 0 7.05882V16.9412C0.00085566 17.6898 0.298608 18.4074 0.827938 18.9368C1.35727 19.4661 2.07495 19.7638 2.82353 19.7647H4.23529V23.2941C4.23533 23.4337 4.27674 23.5701 4.35428 23.6862C4.43182 23.8023 4.54201 23.8928 4.67095 23.9462C4.75655 23.9819 4.84842 24.0002 4.94118 24C5.03387 24 5.12565 23.9817 5.21129 23.9462C5.29692 23.9108 5.37473 23.8588 5.44026 23.7932L9.4687 19.7647H16.9412C17.6898 19.7638 18.4074 19.4661 18.9368 18.9368C19.4661 18.4074 19.7638 17.6898 19.7647 16.9412V7.05882C19.7638 6.31024 19.4661 5.59256 18.9368 5.06323C18.4074 4.5339 17.6898 4.23615 16.9412 4.23529ZM4.23529 11.2941C4.23529 11.0149 4.31809 10.7419 4.47322 10.5098C4.62835 10.2776 4.84883 10.0967 5.1068 9.98982C5.36477 9.88296 5.64862 9.855 5.92248 9.90948C6.19634 9.96395 6.44789 10.0984 6.64533 10.2958C6.84276 10.4933 6.97722 10.7448 7.0317 11.0187C7.08617 11.2925 7.05821 11.5764 6.95136 11.8344C6.84451 12.0923 6.66356 12.3128 6.43139 12.468C6.19923 12.6231 5.92628 12.7059 5.64706 12.7059C5.27263 12.7059 4.91355 12.5571 4.64879 12.2924C4.38403 12.0276 4.23529 11.6685 4.23529 11.2941ZM13.7744 15.4088C12.5998 16.1173 11.2541 16.4917 9.88235 16.4917C8.51063 16.4917 7.16492 16.1173 5.99034 15.4088C5.91066 15.3613 5.84114 15.2985 5.78575 15.2241C5.73035 15.1496 5.69018 15.065 5.66753 14.9751C5.64488 14.8851 5.6402 14.7916 5.65374 14.6998C5.66729 14.608 5.69881 14.5198 5.74649 14.4402C5.79416 14.3606 5.85707 14.2912 5.9316 14.236C6.00613 14.1807 6.09083 14.1407 6.18084 14.1183C6.27085 14.0958 6.36441 14.0913 6.45616 14.105C6.54791 14.1188 6.63605 14.1505 6.71554 14.1983C7.67471 14.7649 8.76833 15.0638 9.88235 15.0638C10.9964 15.0638 12.09 14.7649 13.0492 14.1983C13.1287 14.1505 13.2168 14.1188 13.3085 14.105C13.4003 14.0913 13.4939 14.0958 13.5839 14.1183C13.6739 14.1407 13.7586 14.1807 13.8331 14.236C13.9076 14.2912 13.9705 14.3606 14.0182 14.4402C14.0659 14.5198 14.0974 14.608 14.111 14.6998C14.1245 14.7916 14.1198 14.8851 14.0972 14.9751C14.0745 15.065 14.0343 15.1496 13.979 15.2241C13.9236 15.2985 13.854 15.3613 13.7744 15.4088ZM14.1176 12.7059C13.8384 12.7059 13.5655 12.6231 13.3333 12.468C13.1011 12.3128 12.9202 12.0923 12.8133 11.8344C12.7065 11.5764 12.6785 11.2925 12.733 11.0187C12.7875 10.7448 12.9219 10.4933 13.1194 10.2958C13.3168 10.0984 13.5684 9.96395 13.8422 9.90948C14.1161 9.855 14.3999 9.88296 14.6579 9.98982C14.9159 10.0967 15.1364 10.2776 15.2915 10.5098C15.4466 10.7419 15.5294 11.0149 15.5294 11.2941C15.5294 11.6685 15.3807 12.0276 15.1159 12.2924C14.8512 12.5571 14.4921 12.7059 14.1176 12.7059Z" fill="white"/>
</svg>
