<svg width="68" height="66" viewBox="0 0 68 66" fill="none" xmlns="http://www.w3.org/2000/svg">
<path d="M17.681 23.5836L16.8181 26.1724H10.6199C7.69093 26.1724 5.30957 28.5538 5.30957 31.4827V52.7241C5.30957 55.6531 7.69093 58.0345 10.6199 58.0345H42.482C45.411 58.0345 47.7923 55.6531 47.7923 52.7241V31.4827C47.7923 28.5538 45.411 26.1724 42.482 26.1724H36.2838L35.4209 23.5836C34.8816 21.9573 33.3631 20.8621 31.6456 20.8621H21.4563C19.7388 20.8621 18.2203 21.9573 17.681 23.5836ZM26.5509 34.1379C30.9486 34.1379 34.5165 37.7058 34.5165 42.1034C34.5165 46.5011 30.9486 50.069 26.5509 50.069C22.1533 50.069 18.5854 46.5011 18.5854 42.1034C18.5854 37.7058 22.1533 34.1379 26.5509 34.1379Z" fill="#667085"/>
<path d="M52.5832 9.41054C52.5832 8.70623 52.0142 8.13721 51.3099 8.13721C50.6056 8.13721 50.0365 8.70623 50.0365 9.41054V15.1405H44.3065C43.6022 15.1405 43.0332 15.7096 43.0332 16.4139C43.0332 17.1182 43.6022 17.6872 44.3065 17.6872H50.0365V23.4172C50.0365 24.1215 50.6056 24.6905 51.3099 24.6905C52.0142 24.6905 52.5832 24.1215 52.5832 23.4172V17.6872H58.3132C59.0175 17.6872 59.5865 17.1182 59.5865 16.4139C59.5865 15.7096 59.0175 15.1405 58.3132 15.1405H52.5832V9.41054Z" fill="#667085"/>
</svg>
