<svg width="30" height="31" viewBox="0 0 30 31" fill="none" xmlns="http://www.w3.org/2000/svg">
<g clip-path="url(#clip0_2245_814)">
<path d="M29.7516 15.3936C29.7516 14.1555 29.6511 13.2519 29.4337 12.3149H15.2949V17.9034H23.5941C23.4268 19.2923 22.5233 21.3838 20.5153 22.7892L20.4872 22.9763L24.9576 26.4395L25.2673 26.4704C28.1118 23.8434 29.7516 19.9783 29.7516 15.3936Z" fill="#4285F4"/>
<path d="M15.2936 30.118C19.3595 30.118 22.7728 28.7794 25.266 26.4704L20.514 22.7892C19.2424 23.676 17.5357 24.2951 15.2936 24.2951C11.3113 24.2951 7.93145 21.6682 6.72661 18.0374L6.55001 18.0523L1.90161 21.6498L1.84082 21.8188C4.31717 26.738 9.40378 30.118 15.2936 30.118Z" fill="#34A853"/>
<path d="M6.72642 18.0373C6.40852 17.1003 6.22453 16.0963 6.22453 15.059C6.22453 14.0215 6.40852 13.0176 6.7097 12.0806L6.70128 11.8811L1.99463 8.22583L1.84063 8.29908C0.82001 10.3404 0.234375 12.6328 0.234375 15.059C0.234375 17.4851 0.82001 19.7774 1.84063 21.8187L6.72642 18.0373Z" fill="#FBBC05"/>
<path d="M15.2936 5.82278C18.1213 5.82278 20.0287 7.04423 21.1164 8.06497L25.3663 3.91535C22.7562 1.48918 19.3595 0 15.2936 0C9.40378 0 4.31717 3.37989 1.84082 8.29913L6.70989 12.0807C7.93145 8.44978 11.3113 5.82278 15.2936 5.82278Z" fill="#EB4335"/>
</g>
<defs>
<clipPath id="clip0_2245_814">
<rect width="29.5328" height="30.2219" fill="white" transform="translate(0.233398)"/>
</clipPath>
</defs>
</svg>
