<svg width="151" height="63" viewBox="0 0 151 63" fill="none" xmlns="http://www.w3.org/2000/svg">
<path d="M48.3248 28.1451H51.4887L56.1473 41.4607L60.8059 28.1451H63.9697L57.4178 46.2812H54.8767L48.3248 28.1451ZM46.6183 28.1451H49.7697L50.3427 41.1244V46.2812H46.6183V28.1451ZM62.5248 28.1451H65.6887V46.2812H61.9518V41.1244L62.5248 28.1451ZM74.9436 46.5304C73.8972 46.5304 72.9589 46.3643 72.1285 46.0321C71.2981 45.6917 70.5922 45.2225 70.0109 44.6246C69.4379 44.0267 68.9978 43.3333 68.6906 42.5444C68.3833 41.7472 68.2297 40.9002 68.2297 40.0034V39.5051C68.2297 38.4837 68.375 37.5495 68.6657 36.7025C68.9563 35.8555 69.3715 35.1206 69.9113 34.4978C70.4593 33.8749 71.1237 33.3975 71.9043 33.0653C72.6848 32.7248 73.5651 32.5546 74.545 32.5546C75.4999 32.5546 76.3469 32.7124 77.086 33.0279C77.8251 33.3435 78.4437 33.7919 78.942 34.3732C79.4485 34.9545 79.8305 35.652 80.0879 36.4658C80.3454 37.2713 80.4741 38.1682 80.4741 39.1563V40.6511H69.7618V38.2595H76.949V37.9855C76.949 37.4872 76.8576 37.043 76.675 36.6527C76.5006 36.2541 76.2348 35.9385 75.8778 35.706C75.5207 35.4735 75.064 35.3572 74.5076 35.3572C74.0343 35.3572 73.6274 35.461 73.2869 35.6686C72.9464 35.8762 72.6682 36.1669 72.4523 36.5406C72.2447 36.9142 72.087 37.3544 71.979 37.8609C71.8793 38.3592 71.8295 38.9072 71.8295 39.5051V40.0034C71.8295 40.5431 71.9043 41.0414 72.0537 41.4981C72.2115 41.9548 72.4316 42.3493 72.7139 42.6814C73.0046 43.0136 73.3533 43.271 73.7602 43.4537C74.1754 43.6364 74.6446 43.7277 75.1678 43.7277C75.8155 43.7277 76.4175 43.6032 76.9739 43.3541C77.5386 43.0966 78.0244 42.7105 78.4313 42.1956L80.1751 44.089C79.8928 44.4959 79.5067 44.8862 79.0167 45.2598C78.5351 45.6335 77.9538 45.9408 77.2729 46.1816C76.5919 46.4141 75.8155 46.5304 74.9436 46.5304ZM90.4763 43.3416V27.1486H94.0886V46.2812H90.8376L90.4763 43.3416ZM81.9564 39.7044V39.4428C81.9564 38.4131 82.0726 37.4789 82.3051 36.6402C82.5376 35.7932 82.8781 35.0666 83.3265 34.4604C83.775 33.8542 84.3272 33.385 84.9832 33.0528C85.6392 32.7207 86.3866 32.5546 87.2253 32.5546C88.0142 32.5546 88.7034 32.7207 89.293 33.0528C89.8909 33.385 90.3975 33.8583 90.8127 34.4728C91.2362 35.079 91.5766 35.7973 91.8341 36.6278C92.0915 37.4499 92.2783 38.3508 92.3946 39.3307V39.9037C92.2783 40.8421 92.0915 41.714 91.8341 42.5195C91.5766 43.325 91.2362 44.0308 90.8127 44.637C90.3975 45.2349 89.8909 45.7 89.293 46.0321C88.6951 46.3643 87.9976 46.5304 87.2004 46.5304C86.3617 46.5304 85.6143 46.3601 84.9583 46.0197C84.3106 45.6792 83.7625 45.2017 83.3141 44.5872C82.874 43.9727 82.5376 43.2503 82.3051 42.4199C82.0726 41.5894 81.9564 40.6843 81.9564 39.7044ZM85.5437 39.4428V39.7044C85.5437 40.2608 85.5852 40.7798 85.6683 41.2614C85.7596 41.7431 85.9049 42.1707 86.1042 42.5444C86.3118 42.9098 86.5776 43.1963 86.9014 43.4039C87.2336 43.6032 87.6364 43.7028 88.1097 43.7028C88.7242 43.7028 89.2307 43.5658 89.6293 43.2918C90.0279 43.0094 90.331 42.6233 90.5386 42.1334C90.7545 41.6434 90.8791 41.0787 90.9123 40.4393V38.8076C90.8874 38.2844 90.8127 37.8152 90.6881 37.4C90.5718 36.9765 90.3975 36.6153 90.1649 36.3163C89.9407 36.0174 89.6584 35.7849 89.3179 35.6188C88.9858 35.4527 88.5913 35.3697 88.1346 35.3697C87.6696 35.3697 87.271 35.4776 86.9388 35.6935C86.6066 35.9011 86.3368 36.1876 86.1292 36.553C85.9299 36.9184 85.7804 37.3502 85.6807 37.8485C85.5894 38.3384 85.5437 38.8699 85.5437 39.4428ZM100.678 32.8037V46.2812H97.0781V32.8037H100.678ZM96.8539 29.2911C96.8539 28.7679 97.0366 28.3361 97.402 27.9957C97.7673 27.6552 98.2573 27.485 98.8718 27.485C99.478 27.485 99.9638 27.6552 100.329 27.9957C100.703 28.3361 100.89 28.7679 100.89 29.2911C100.89 29.8142 100.703 30.2461 100.329 30.5865C99.9638 30.927 99.478 31.0972 98.8718 31.0972C98.2573 31.0972 97.7673 30.927 97.402 30.5865C97.0366 30.2461 96.8539 29.8142 96.8539 29.2911ZM115.526 43.3665V46.2812H106.395V43.3665H115.526ZM107.604 28.1451V46.2812H103.867V28.1451H107.604ZM121.231 32.8037V46.2812H117.631V32.8037H121.231ZM117.407 29.2911C117.407 28.7679 117.589 28.3361 117.955 27.9957C118.32 27.6552 118.81 27.485 119.424 27.485C120.031 27.485 120.516 27.6552 120.882 27.9957C121.255 28.3361 121.442 28.7679 121.442 29.2911C121.442 29.8142 121.255 30.2461 120.882 30.5865C120.516 30.927 120.031 31.0972 119.424 31.0972C118.81 31.0972 118.32 30.927 117.955 30.5865C117.589 30.2461 117.407 29.8142 117.407 29.2911ZM127.708 35.6811V46.2812H124.12V32.8037H127.484L127.708 35.6811ZM127.185 39.0692H126.213C126.213 38.0727 126.342 37.1758 126.599 36.3786C126.857 35.5731 127.218 34.888 127.683 34.3234C128.148 33.7504 128.7 33.3144 129.339 33.0155C129.987 32.7082 130.71 32.5546 131.507 32.5546C132.138 32.5546 132.715 32.6459 133.238 32.8286C133.761 33.0113 134.21 33.302 134.584 33.7006C134.965 34.0992 135.256 34.6265 135.455 35.2825C135.663 35.9385 135.767 36.7399 135.767 37.6865V46.2812H132.155V37.6741C132.155 37.0762 132.072 36.6111 131.905 36.279C131.739 35.9468 131.494 35.7143 131.171 35.5814C130.855 35.4403 130.465 35.3697 130 35.3697C129.518 35.3697 129.099 35.4652 128.742 35.6562C128.393 35.8472 128.102 36.1129 127.87 36.4534C127.645 36.7855 127.475 37.1758 127.359 37.6242C127.243 38.0727 127.185 38.5543 127.185 39.0692ZM142.082 27.1362V46.2812H138.495V27.1362H142.082ZM150.577 32.8037L144.723 39.4802L141.584 42.6565L140.276 40.0656L142.767 36.9018L146.267 32.8037H150.577ZM146.853 46.2812L142.867 40.0532L145.346 37.8858L150.988 46.2812H146.853Z" fill="#0CB8B6"/>
<mask id="mask0_2203_4452" style="mask-type:luminance" maskUnits="userSpaceOnUse" x="0" y="0" width="56" height="63">
<path d="M0 0H55.1342V62.32H0V0Z" fill="white"/>
</mask>
<g mask="url(#mask0_2203_4452)">
<path d="M50.8381 3.916C48.3851 1.57683 45.0948 0.272998 41.7067 0.284376C38.207 0.298029 34.919 1.66785 32.4433 4.14354L27.7218 8.86283L23.1208 4.26186C17.9942 -0.864727 9.64558 -1.02628 4.46893 4.05252C-0.76006 9.17911 -0.791916 17.6028 4.37563 22.7681L29.3715 47.7662C32.2249 50.6196 32.3591 55.2638 29.5603 58.1696C26.7001 61.1459 21.9467 61.18 19.0409 58.2742L12.8494 52.0827C12.5877 51.8211 12.5604 51.4069 12.7857 51.1134C13.7004 49.9097 14.2056 48.3829 14.0918 46.7354C13.8711 43.4838 11.2111 40.8693 7.95719 40.7009C4.18677 40.5052 1.06258 43.5384 1.11264 47.277C1.15815 50.7402 3.98198 53.5982 7.44294 53.6847C8.55791 53.712 9.61372 53.4571 10.5421 52.9861C10.8243 52.8427 11.1656 52.9042 11.3886 53.1272L17.7849 59.5257C19.5665 61.3074 21.908 62.1971 24.2471 62.1971C26.5863 62.1971 28.9277 61.3051 30.7094 59.5257C34.2705 55.9624 34.2705 50.1645 30.7094 46.6012L5.62713 21.5166C1.18318 17.0727 1.18318 9.84127 5.62713 5.39504C10.0734 0.951082 17.307 0.951082 21.7487 5.39504L27.0733 10.7196C27.253 10.8994 27.4874 10.9813 27.7218 10.9767C27.9584 10.9813 28.1928 10.8994 28.3725 10.7196L33.5901 5.50198C35.7541 3.33803 38.6758 2.06378 41.734 2.05695C44.7899 2.05013 47.6615 3.23791 49.8187 5.39504C51.9758 7.55444 53.1636 10.4215 53.159 13.4752C53.1545 16.5356 51.8779 19.4596 49.714 21.6258L48.0279 23.3119C47.8891 23.4507 47.7002 23.5281 47.5045 23.5281H42.4758C42.1959 23.5281 41.9411 23.3711 41.8159 23.1208L39.388 18.265C39.1172 17.7189 38.3413 17.7189 38.0682 18.265L33.8951 26.6045C33.6243 27.1483 32.8484 27.1483 32.5776 26.6045L31.1509 23.7534C30.8801 23.2073 30.1042 23.2073 29.8334 23.7534L28.4067 26.6022C28.1359 27.1461 27.36 27.1461 27.0892 26.6022L22.9183 18.2604C22.6475 17.7166 21.8693 17.7166 21.5985 18.2604L19.1706 23.1185C19.0455 23.3665 18.7906 23.5258 18.5107 23.5258H14.0622C13.5753 23.5258 13.1543 23.899 13.1407 24.3837C13.1247 24.8865 13.5252 25.2961 14.0258 25.2961H19.6052C19.8851 25.2961 20.1422 25.1369 20.2651 24.8888L21.5985 22.2197C21.8693 21.6759 22.6475 21.6759 22.9183 22.2197L27.0892 30.5615C27.36 31.1054 28.1359 31.1054 28.4067 30.5615L29.8334 27.7104C30.1042 27.1666 30.8801 27.1666 31.1509 27.7104L32.5776 30.5615C32.8484 31.1076 33.6243 31.1076 33.8951 30.5615L38.066 22.222C38.3367 21.6782 39.1127 21.6759 39.3857 22.222L40.7191 24.8888C40.8466 25.1391 41.1014 25.2961 41.379 25.2961H48.1735C48.1735 25.2961 48.1735 25.2961 48.1758 25.2961C48.2304 25.2961 48.2827 25.2916 48.3351 25.2825C48.3373 25.2825 48.3419 25.2802 48.3464 25.2802C48.3965 25.2711 48.4488 25.2552 48.4966 25.237C48.5012 25.2347 48.5057 25.2347 48.5103 25.2324C48.5603 25.2119 48.6058 25.1869 48.6514 25.1573C48.6559 25.1551 48.6605 25.1551 48.665 25.1505C48.7128 25.1186 48.756 25.0822 48.797 25.0436C48.7993 25.0413 48.7993 25.0413 48.7993 25.0413L50.9427 22.8978C53.4776 20.363 54.9566 16.9316 54.9293 13.3455C54.8997 9.76163 53.4457 6.40079 50.8381 3.916ZM2.88294 47.1882C2.88294 44.5829 5.00593 42.4621 7.61132 42.4621C10.2167 42.4621 12.3374 44.5829 12.3374 47.1882C12.3374 49.7959 10.2167 51.9166 7.61132 51.9166C5.00593 51.9166 2.88294 49.7959 2.88294 47.1882Z" fill="#5271FF"/>
</g>
<path d="M46.1834 54.5311H47.31L48.969 59.2729L50.628 54.5311H51.7546L49.4214 60.9895H48.5166L46.1834 54.5311ZM45.5757 54.5311H46.6979L46.9019 59.1531V60.9895H45.5757V54.5311ZM51.2401 54.5311H52.3668V60.9895H51.036V59.1531L51.2401 54.5311ZM57.8671 59.9515V60.9895H54.4294V59.9515H57.8671ZM54.8641 54.5311V60.9895H53.5334V54.5311H54.8641ZM57.419 57.1615V58.1728H54.4294V57.1615H57.419ZM57.8626 54.5311V55.5735H54.4294V54.5311H57.8626ZM60.6261 60.9895H59.2199L59.2288 59.9515H60.6261C60.975 59.9515 61.2693 59.8732 61.5088 59.7164C61.7483 59.5568 61.9287 59.3246 62.0499 59.02C62.1741 58.7155 62.2362 58.3473 62.2362 57.9155V57.6006C62.2362 57.2694 62.2008 56.9781 62.1298 56.7268C62.0618 56.4754 61.9597 56.264 61.8237 56.0925C61.6877 55.9209 61.5206 55.7923 61.3225 55.7066C61.1244 55.6178 60.8967 55.5735 60.6394 55.5735H59.1933V54.5311H60.6394C61.0711 54.5311 61.4659 54.605 61.8237 54.7529C62.1845 54.8978 62.4965 55.1063 62.7597 55.3783C63.0228 55.6504 63.2254 55.9757 63.3673 56.3542C63.5123 56.7297 63.5847 57.1482 63.5847 57.6095V57.9155C63.5847 58.3739 63.5123 58.7923 63.3673 59.1709C63.2254 59.5494 63.0228 59.8747 62.7597 60.1467C62.4994 60.4158 62.1874 60.6243 61.8237 60.7722C61.4629 60.9171 61.0637 60.9895 60.6261 60.9895ZM59.974 54.5311V60.9895H58.6433V54.5311H59.974ZM65.9667 54.5311V60.9895H64.6404V54.5311H65.9667ZM70.9569 58.847H72.2832C72.2565 59.2817 72.1368 59.6677 71.9239 60.0048C71.7139 60.3419 71.4197 60.6051 71.0411 60.7943C70.6656 60.9836 70.2131 61.0782 69.6838 61.0782C69.2698 61.0782 68.8987 61.0072 68.5705 60.8653C68.2422 60.7204 67.9613 60.5134 67.7277 60.2443C67.497 59.9752 67.3211 59.6499 67.1998 59.2684C67.0786 58.887 67.0179 58.4597 67.0179 57.9865V57.5385C67.0179 57.0654 67.08 56.6381 67.2042 56.2566C67.3314 55.8722 67.5118 55.5454 67.7454 55.2763C67.982 55.0072 68.2644 54.8002 68.5926 54.6553C68.9209 54.5104 69.2876 54.4379 69.6927 54.4379C70.2309 54.4379 70.6848 54.5355 71.0545 54.7307C71.4271 54.9259 71.7154 55.195 71.9194 55.538C72.1264 55.881 72.2506 56.2714 72.292 56.709H70.9613C70.9465 56.4488 70.8948 56.2285 70.8061 56.0481C70.7173 55.8648 70.5828 55.7273 70.4024 55.6356C70.225 55.541 69.9884 55.4936 69.6927 55.4936C69.4709 55.4936 69.2772 55.535 69.1116 55.6178C68.946 55.7006 68.807 55.8263 68.6947 55.9949C68.5823 56.1634 68.498 56.3764 68.4418 56.6336C68.3886 56.8879 68.362 57.1866 68.362 57.5296V57.9865C68.362 58.3207 68.3871 58.6149 68.4374 58.8692C68.4877 59.1206 68.5645 59.3335 68.668 59.508C68.7745 59.6795 68.9105 59.8096 69.0761 59.8983C69.2447 59.9841 69.4472 60.027 69.6838 60.027C69.9618 60.027 70.191 59.9826 70.3714 59.8939C70.5517 59.8052 70.6892 59.6736 70.7839 59.4991C70.8815 59.3246 70.9391 59.1073 70.9569 58.847ZM75.7829 55.6356L74.0264 60.9895H72.6114L75.0111 54.5311H75.9116L75.7829 55.6356ZM77.2423 60.9895L75.4813 55.6356L75.3394 54.5311H76.2487L78.6617 60.9895H77.2423ZM77.1624 58.5853V59.6277H73.7514V58.5853H77.1624ZM83.4124 59.9515V60.9895H80.161V59.9515H83.4124ZM80.5913 54.5311V60.9895H79.2605V54.5311H80.5913ZM90.1813 58.847H91.5076C91.481 59.2817 91.3612 59.6677 91.1483 60.0048C90.9383 60.3419 90.6441 60.6051 90.2656 60.7943C89.89 60.9836 89.4376 61.0782 88.9082 61.0782C88.4942 61.0782 88.1231 61.0072 87.7949 60.8653C87.4666 60.7204 87.1857 60.5134 86.9521 60.2443C86.7214 59.9752 86.5455 59.6499 86.4242 59.2684C86.303 58.887 86.2424 58.4597 86.2424 57.9865V57.5385C86.2424 57.0654 86.3045 56.6381 86.4287 56.2566C86.5558 55.8722 86.7362 55.5454 86.9698 55.2763C87.2064 55.0072 87.4888 54.8002 87.8171 54.6553C88.1453 54.5104 88.512 54.4379 88.9171 54.4379C89.4553 54.4379 89.9092 54.5355 90.2789 54.7307C90.6515 54.9259 90.9398 55.195 91.1438 55.538C91.3508 55.881 91.475 56.2714 91.5164 56.709H90.1857C90.1709 56.4488 90.1192 56.2285 90.0305 56.0481C89.9418 55.8648 89.8072 55.7273 89.6268 55.6356C89.4494 55.541 89.2128 55.4936 88.9171 55.4936C88.6953 55.4936 88.5016 55.535 88.336 55.6178C88.1704 55.7006 88.0314 55.8263 87.9191 55.9949C87.8067 56.1634 87.7224 56.3764 87.6662 56.6336C87.613 56.8879 87.5864 57.1866 87.5864 57.5296V57.9865C87.5864 58.3207 87.6115 58.6149 87.6618 58.8692C87.7121 59.1206 87.789 59.3335 87.8925 59.508C87.9989 59.6795 88.1349 59.8096 88.3005 59.8983C88.4691 59.9841 88.6717 60.027 88.9082 60.027C89.1862 60.027 89.4154 59.9826 89.5958 59.8939C89.7762 59.8052 89.9137 59.6736 90.0083 59.4991C90.1059 59.3246 90.1635 59.1073 90.1813 58.847ZM96.5332 59.9515V60.9895H93.2819V59.9515H96.5332ZM93.7121 54.5311V60.9895H92.3814V54.5311H93.7121ZM98.7112 54.5311V60.9895H97.3849V54.5311H98.7112ZM105.214 54.5311V60.9895H103.883L101.288 56.6602V60.9895H99.9576V54.5311H101.288L103.888 58.8648V54.5311H105.214ZM107.787 54.5311V60.9895H106.46V54.5311H107.787ZM112.777 58.847H114.103C114.077 59.2817 113.957 59.6677 113.744 60.0048C113.534 60.3419 113.24 60.6051 112.861 60.7943C112.486 60.9836 112.033 61.0782 111.504 61.0782C111.09 61.0782 110.719 61.0072 110.39 60.8653C110.062 60.7204 109.781 60.5134 109.548 60.2443C109.317 59.9752 109.141 59.6499 109.02 59.2684C108.899 58.887 108.838 58.4597 108.838 57.9865V57.5385C108.838 57.0654 108.9 56.6381 109.024 56.2566C109.151 55.8722 109.332 55.5454 109.565 55.2763C109.802 55.0072 110.084 54.8002 110.413 54.6553C110.741 54.5104 111.108 54.4379 111.513 54.4379C112.051 54.4379 112.505 54.5355 112.874 54.7307C113.247 54.9259 113.535 55.195 113.739 55.538C113.946 55.881 114.071 56.2714 114.112 56.709H112.781C112.767 56.4488 112.715 56.2285 112.626 56.0481C112.537 55.8648 112.403 55.7273 112.222 55.6356C112.045 55.541 111.808 55.4936 111.513 55.4936C111.291 55.4936 111.097 55.535 110.932 55.6178C110.766 55.7006 110.627 55.8263 110.515 55.9949C110.402 56.1634 110.318 56.3764 110.262 56.6336C110.209 56.8879 110.182 57.1866 110.182 57.5296V57.9865C110.182 58.3207 110.207 58.6149 110.257 58.8692C110.308 59.1206 110.385 59.3335 110.488 59.508C110.594 59.6795 110.731 59.8096 110.896 59.8983C111.065 59.9841 111.267 60.027 111.504 60.027C111.782 60.027 112.011 59.9826 112.191 59.8939C112.372 59.8052 112.509 59.6736 112.604 59.4991C112.701 59.3246 112.759 59.1073 112.777 58.847ZM118.339 59.2995C118.339 59.1842 118.322 59.0807 118.286 58.989C118.253 58.8944 118.191 58.8086 118.1 58.7317C118.008 58.6519 117.879 58.5735 117.714 58.4966C117.548 58.4197 117.334 58.3399 117.071 58.2571C116.778 58.1625 116.5 58.056 116.237 57.9377C115.976 57.8194 115.746 57.6819 115.545 57.5252C115.347 57.3655 115.19 57.1807 115.075 56.9707C114.962 56.7608 114.906 56.5168 114.906 56.2388C114.906 55.9697 114.965 55.7258 115.083 55.5069C115.202 55.2852 115.367 55.0959 115.58 54.9392C115.793 54.7795 116.045 54.6568 116.334 54.571C116.627 54.4853 116.948 54.4424 117.297 54.4424C117.773 54.4424 118.188 54.5281 118.543 54.6996C118.898 54.8712 119.173 55.1063 119.368 55.4049C119.566 55.7036 119.666 56.0452 119.666 56.4296H118.344C118.344 56.2403 118.304 56.0747 118.224 55.9328C118.147 55.7879 118.029 55.674 117.869 55.5912C117.712 55.5084 117.514 55.467 117.275 55.467C117.044 55.467 116.852 55.5025 116.698 55.5735C116.544 55.6415 116.429 55.7346 116.352 55.8529C116.275 55.9683 116.237 56.0984 116.237 56.2433C116.237 56.3527 116.263 56.4518 116.317 56.5405C116.373 56.6292 116.456 56.712 116.565 56.7889C116.674 56.8658 116.809 56.9382 116.969 57.0062C117.128 57.0742 117.313 57.1408 117.523 57.2058C117.875 57.3123 118.184 57.4321 118.45 57.5651C118.719 57.6982 118.944 57.8475 119.124 58.0131C119.305 58.1787 119.441 58.3665 119.532 58.5765C119.624 58.7864 119.67 59.0245 119.67 59.2906C119.67 59.5715 119.615 59.8229 119.506 60.0447C119.396 60.2665 119.238 60.4543 119.031 60.608C118.824 60.7618 118.577 60.8786 118.29 60.9585C118.004 61.0383 117.683 61.0782 117.328 61.0782C117.009 61.0782 116.694 61.0368 116.383 60.954C116.073 60.8683 115.79 60.7396 115.536 60.5681C115.285 60.3966 115.083 60.1778 114.933 59.9116C114.782 59.6455 114.706 59.3305 114.706 58.9668H116.042C116.042 59.1679 116.073 59.3379 116.135 59.4769C116.197 59.6159 116.284 59.7283 116.396 59.814C116.512 59.8998 116.648 59.9619 116.804 60.0003C116.964 60.0388 117.139 60.058 117.328 60.058C117.559 60.058 117.748 60.0255 117.896 59.9604C118.046 59.8954 118.157 59.8052 118.228 59.6898C118.302 59.5745 118.339 59.4444 118.339 59.2995Z" fill="#5271FF"/>
</svg>
