<svg width="152" height="63" viewBox="0 0 152 63" fill="none" xmlns="http://www.w3.org/2000/svg">
<path d="M48.8253 28.1451H51.9892L56.6477 41.4607L61.3063 28.1451H64.4702L57.9183 46.2812H55.3772L48.8253 28.1451ZM47.1188 28.1451H50.2702L50.8432 41.1244V46.2812H47.1188V28.1451ZM63.0253 28.1451H66.1891V46.2812H62.4523V41.1244L63.0253 28.1451ZM75.444 46.5304C74.3977 46.5304 73.4594 46.3643 72.629 46.0321C71.7986 45.6917 71.0927 45.2225 70.5114 44.6246C69.9384 44.0267 69.4983 43.3333 69.1911 42.5444C68.8838 41.7472 68.7302 40.9002 68.7302 40.0034V39.5051C68.7302 38.4837 68.8755 37.5495 69.1662 36.7025C69.4568 35.8555 69.872 35.1206 70.4118 34.4978C70.9598 33.8749 71.6242 33.3975 72.4047 33.0653C73.1853 32.7248 74.0656 32.5546 75.0454 32.5546C76.0004 32.5546 76.8474 32.7124 77.5865 33.0279C78.3256 33.3435 78.9442 33.7919 79.4425 34.3732C79.949 34.9545 80.331 35.652 80.5884 36.4658C80.8459 37.2713 80.9746 38.1682 80.9746 39.1563V40.6511H70.2623V38.2595H77.4495V37.9855C77.4495 37.4872 77.3581 37.043 77.1754 36.6527C77.0011 36.2541 76.7353 35.9385 76.3783 35.706C76.0212 35.4735 75.5645 35.3572 75.0081 35.3572C74.5347 35.3572 74.1278 35.461 73.7874 35.6686C73.4469 35.8762 73.1687 36.1669 72.9528 36.5406C72.7452 36.9142 72.5874 37.3544 72.4795 37.8609C72.3798 38.3592 72.33 38.9072 72.33 39.5051V40.0034C72.33 40.5431 72.4047 41.0414 72.5542 41.4981C72.712 41.9548 72.9321 42.3493 73.2144 42.6814C73.505 43.0136 73.8538 43.271 74.2607 43.4537C74.6759 43.6364 75.1451 43.7277 75.6683 43.7277C76.316 43.7277 76.918 43.6032 77.4744 43.3541C78.0391 43.0966 78.5249 42.7105 78.9318 42.1956L80.6756 44.089C80.3933 44.4959 80.0071 44.8862 79.5172 45.2598C79.0356 45.6335 78.4543 45.9408 77.7733 46.1816C77.0924 46.4141 76.316 46.5304 75.444 46.5304ZM90.9768 43.3416V27.1486H94.5891V46.2812H91.3381L90.9768 43.3416ZM82.4568 39.7044V39.4428C82.4568 38.4131 82.5731 37.4789 82.8056 36.6402C83.0381 35.7932 83.3786 35.0666 83.827 34.4604C84.2754 33.8542 84.8277 33.385 85.4837 33.0528C86.1397 32.7207 86.8871 32.5546 87.7258 32.5546C88.5147 32.5546 89.2039 32.7207 89.7935 33.0528C90.3914 33.385 90.8979 33.8583 91.3132 34.4728C91.7367 35.079 92.0771 35.7973 92.3346 36.6278C92.592 37.4499 92.7788 38.3508 92.8951 39.3307V39.9037C92.7788 40.8421 92.592 41.714 92.3346 42.5195C92.0771 43.325 91.7367 44.0308 91.3132 44.637C90.8979 45.2349 90.3914 45.7 89.7935 46.0321C89.1956 46.3643 88.4981 46.5304 87.7009 46.5304C86.8622 46.5304 86.1148 46.3601 85.4588 46.0197C84.8111 45.6792 84.263 45.2017 83.8146 44.5872C83.3744 43.9727 83.0381 43.2503 82.8056 42.4199C82.5731 41.5894 82.4568 40.6843 82.4568 39.7044ZM86.0442 39.4428V39.7044C86.0442 40.2608 86.0857 40.7798 86.1688 41.2614C86.2601 41.7431 86.4054 42.1707 86.6047 42.5444C86.8123 42.9098 87.0781 43.1963 87.4019 43.4039C87.7341 43.6032 88.1368 43.7028 88.6102 43.7028C89.2247 43.7028 89.7312 43.5658 90.1298 43.2918C90.5284 43.0094 90.8315 42.6233 91.0391 42.1334C91.255 41.6434 91.3796 41.0787 91.4128 40.4393V38.8076C91.3879 38.2844 91.3132 37.8152 91.1886 37.4C91.0723 36.9765 90.8979 36.6153 90.6654 36.3163C90.4412 36.0174 90.1589 35.7849 89.8184 35.6188C89.4863 35.4527 89.0918 35.3697 88.6351 35.3697C88.1701 35.3697 87.7715 35.4776 87.4393 35.6935C87.1071 35.9011 86.8372 36.1876 86.6296 36.553C86.4303 36.9184 86.2809 37.3502 86.1812 37.8485C86.0899 38.3384 86.0442 38.8699 86.0442 39.4428ZM101.178 32.8037V46.2812H97.5786V32.8037H101.178ZM97.3544 29.2911C97.3544 28.7679 97.5371 28.3361 97.9024 27.9957C98.2678 27.6552 98.7578 27.485 99.3723 27.485C99.9785 27.485 100.464 27.6552 100.83 27.9957C101.203 28.3361 101.39 28.7679 101.39 29.2911C101.39 29.8142 101.203 30.2461 100.83 30.5865C100.464 30.927 99.9785 31.0972 99.3723 31.0972C98.7578 31.0972 98.2678 30.927 97.9024 30.5865C97.5371 30.2461 97.3544 29.8142 97.3544 29.2911ZM116.026 43.3665V46.2812H106.896V43.3665H116.026ZM108.104 28.1451V46.2812H104.367V28.1451H108.104ZM121.731 32.8037V46.2812H118.131V32.8037H121.731ZM117.907 29.2911C117.907 28.7679 118.09 28.3361 118.455 27.9957C118.82 27.6552 119.31 27.485 119.925 27.485C120.531 27.485 121.017 27.6552 121.382 27.9957C121.756 28.3361 121.943 28.7679 121.943 29.2911C121.943 29.8142 121.756 30.2461 121.382 30.5865C121.017 30.927 120.531 31.0972 119.925 31.0972C119.31 31.0972 118.82 30.927 118.455 30.5865C118.09 30.2461 117.907 29.8142 117.907 29.2911ZM128.208 35.6811V46.2812H124.621V32.8037H127.984L128.208 35.6811ZM127.685 39.0692H126.713C126.713 38.0727 126.842 37.1758 127.1 36.3786C127.357 35.5731 127.718 34.888 128.183 34.3234C128.648 33.7504 129.201 33.3144 129.84 33.0155C130.488 32.7082 131.21 32.5546 132.007 32.5546C132.638 32.5546 133.216 32.6459 133.739 32.8286C134.262 33.0113 134.71 33.302 135.084 33.7006C135.466 34.0992 135.757 34.6265 135.956 35.2825C136.164 35.9385 136.267 36.7399 136.267 37.6865V46.2812H132.655V37.6741C132.655 37.0762 132.572 36.6111 132.406 36.279C132.24 35.9468 131.995 35.7143 131.671 35.5814C131.355 35.4403 130.965 35.3697 130.5 35.3697C130.018 35.3697 129.599 35.4652 129.242 35.6562C128.893 35.8472 128.603 36.1129 128.37 36.4534C128.146 36.7855 127.976 37.1758 127.859 37.6242C127.743 38.0727 127.685 38.5543 127.685 39.0692ZM142.583 27.1362V46.2812H138.995V27.1362H142.583ZM151.078 32.8037L145.223 39.4802L142.084 42.6565L140.776 40.0656L143.268 36.9018L146.768 32.8037H151.078ZM147.353 46.2812L143.367 40.0532L145.846 37.8858L151.489 46.2812H147.353Z" fill="white"/>
<mask id="mask0_2423_788" style="mask-type:luminance" maskUnits="userSpaceOnUse" x="0" y="0" width="56" height="63">
<path d="M0.500244 0H55.6344V62.32H0.500244V0Z" fill="white"/>
</mask>
<g mask="url(#mask0_2423_788)">
<path d="M51.3383 3.916C48.8854 1.57683 45.5951 0.272998 42.2069 0.284376C38.7073 0.298029 35.4193 1.66785 32.9436 4.14354L28.222 8.86283L23.621 4.26186C18.4945 -0.864727 10.1458 -1.02628 4.96917 4.05252C-0.259816 9.17911 -0.291672 17.6028 4.87588 22.7681L29.8717 47.7662C32.7251 50.6196 32.8594 55.2638 30.0606 58.1696C27.2003 61.1459 22.4469 61.18 19.5412 58.2742L13.3497 52.0827C13.088 51.8211 13.0607 51.4069 13.2859 51.1134C14.2007 49.9097 14.7058 48.3829 14.5921 46.7354C14.3713 43.4838 11.7113 40.8693 8.45744 40.7009C4.68702 40.5052 1.56282 43.5384 1.61288 47.277C1.65839 50.7402 4.48222 53.5982 7.94318 53.6847C9.05816 53.712 10.114 53.4571 11.0423 52.9861C11.3245 52.8427 11.6658 52.9042 11.8888 53.1272L18.2851 59.5257C20.0668 61.3074 22.4082 62.1971 24.7474 62.1971C27.0866 62.1971 29.428 61.3051 31.2097 59.5257C34.7708 55.9624 34.7708 50.1645 31.2097 46.6012L6.12738 21.5166C1.68342 17.0727 1.68342 9.84127 6.12738 5.39504C10.5736 0.951082 17.8073 0.951082 22.2489 5.39504L27.5735 10.7196C27.7533 10.8994 27.9876 10.9813 28.222 10.9767C28.4587 10.9813 28.693 10.8994 28.8728 10.7196L34.0904 5.50198C36.2543 3.33803 39.176 2.06378 42.2342 2.05695C45.2902 2.05013 48.1618 3.23791 50.3189 5.39504C52.476 7.55444 53.6638 10.4215 53.6593 13.4752C53.6547 16.5356 52.3782 19.4596 50.2142 21.6258L48.5281 23.3119C48.3893 23.4507 48.2005 23.5281 48.0048 23.5281H42.976C42.6961 23.5281 42.4413 23.3711 42.3161 23.1208L39.8882 18.265C39.6175 17.7189 38.8415 17.7189 38.5685 18.265L34.3953 26.6045C34.1245 27.1483 33.3486 27.1483 33.0778 26.6045L31.6511 23.7534C31.3803 23.2073 30.6044 23.2073 30.3336 23.7534L28.9069 26.6022C28.6361 27.1461 27.8602 27.1461 27.5894 26.6022L23.4185 18.2604C23.1477 17.7166 22.3695 17.7166 22.0988 18.2604L19.6709 23.1185C19.5457 23.3665 19.2909 23.5258 19.011 23.5258H14.5625C14.0755 23.5258 13.6546 23.899 13.6409 24.3837C13.625 24.8865 14.0255 25.2961 14.5261 25.2961H20.1055C20.3854 25.2961 20.6425 25.1369 20.7654 24.8888L22.0988 22.2197C22.3695 21.6759 23.1477 21.6759 23.4185 22.2197L27.5894 30.5615C27.8602 31.1054 28.6361 31.1054 28.9069 30.5615L30.3336 27.7104C30.6044 27.1666 31.3803 27.1666 31.6511 27.7104L33.0778 30.5615C33.3486 31.1076 34.1245 31.1076 34.3953 30.5615L38.5662 22.222C38.837 21.6782 39.6129 21.6759 39.886 22.222L41.2194 24.8888C41.3468 25.1391 41.6017 25.2961 41.8793 25.2961H48.6738C48.6738 25.2961 48.6738 25.2961 48.676 25.2961C48.7306 25.2961 48.783 25.2916 48.8353 25.2825C48.8376 25.2825 48.8421 25.2802 48.8467 25.2802C48.8968 25.2711 48.9491 25.2552 48.9969 25.237C49.0014 25.2347 49.006 25.2347 49.0105 25.2324C49.0606 25.2119 49.1061 25.1869 49.1516 25.1573C49.1562 25.1551 49.1607 25.1551 49.1653 25.1505C49.213 25.1186 49.2563 25.0822 49.2972 25.0436C49.2995 25.0413 49.2995 25.0413 49.2995 25.0413L51.443 22.8978C53.9778 20.363 55.4569 16.9316 55.4296 13.3455C55.4 9.76163 53.946 6.40079 51.3383 3.916ZM3.38318 47.1882C3.38318 44.5829 5.50618 42.4621 8.11157 42.4621C10.717 42.4621 12.8377 44.5829 12.8377 47.1882C12.8377 49.7959 10.717 51.9166 8.11157 51.9166C5.50618 51.9166 3.38318 49.7959 3.38318 47.1882Z" fill="white"/>
</g>
<path d="M46.6838 54.5311H47.8105L49.4695 59.2729L51.1284 54.5311H52.2551L49.9219 60.9895H49.017L46.6838 54.5311ZM46.0762 54.5311H47.1984L47.4024 59.1531V60.9895H46.0762V54.5311ZM51.7406 54.5311H52.8672V60.9895H51.5365V59.1531L51.7406 54.5311ZM58.3675 59.9515V60.9895H54.9299V59.9515H58.3675ZM55.3646 54.5311V60.9895H54.0338V54.5311H55.3646ZM57.9195 57.1615V58.1728H54.9299V57.1615H57.9195ZM58.3631 54.5311V55.5735H54.9299V54.5311H58.3631ZM61.1266 60.9895H59.7204L59.7293 59.9515H61.1266C61.4755 59.9515 61.7697 59.8732 62.0093 59.7164C62.2488 59.5568 62.4292 59.3246 62.5504 59.02C62.6746 58.7155 62.7367 58.3473 62.7367 57.9155V57.6006C62.7367 57.2694 62.7012 56.9781 62.6303 56.7268C62.5623 56.4754 62.4602 56.264 62.3242 56.0925C62.1882 55.9209 62.0211 55.7923 61.823 55.7066C61.6248 55.6178 61.3971 55.5735 61.1399 55.5735H59.6938V54.5311H61.1399C61.5716 54.5311 61.9664 54.605 62.3242 54.7529C62.685 54.8978 62.997 55.1063 63.2601 55.3783C63.5233 55.6504 63.7259 55.9757 63.8678 56.3542C64.0127 56.7297 64.0852 57.1482 64.0852 57.6095V57.9155C64.0852 58.3739 64.0127 58.7923 63.8678 59.1709C63.7259 59.5494 63.5233 59.8747 63.2601 60.1467C62.9999 60.4158 62.6879 60.6243 62.3242 60.7722C61.9634 60.9171 61.5642 60.9895 61.1266 60.9895ZM60.4745 54.5311V60.9895H59.1438V54.5311H60.4745ZM66.4672 54.5311V60.9895H65.1409V54.5311H66.4672ZM71.4574 58.847H72.7836C72.757 59.2817 72.6373 59.6677 72.4243 60.0048C72.2144 60.3419 71.9202 60.6051 71.5416 60.7943C71.1661 60.9836 70.7136 61.0782 70.1843 61.0782C69.7703 61.0782 69.3992 61.0072 69.0709 60.8653C68.7427 60.7204 68.4618 60.5134 68.2282 60.2443C67.9975 59.9752 67.8215 59.6499 67.7003 59.2684C67.5791 58.887 67.5184 58.4597 67.5184 57.9865V57.5385C67.5184 57.0654 67.5805 56.6381 67.7047 56.2566C67.8319 55.8722 68.0123 55.5454 68.2459 55.2763C68.4825 55.0072 68.7649 54.8002 69.0931 54.6553C69.4214 54.5104 69.788 54.4379 70.1932 54.4379C70.7314 54.4379 71.1853 54.5355 71.5549 54.7307C71.9275 54.9259 72.2159 55.195 72.4199 55.538C72.6269 55.881 72.7511 56.2714 72.7925 56.709H71.4618C71.447 56.4488 71.3953 56.2285 71.3065 56.0481C71.2178 55.8648 71.0833 55.7273 70.9029 55.6356C70.7255 55.541 70.4889 55.4936 70.1932 55.4936C69.9714 55.4936 69.7777 55.535 69.6121 55.6178C69.4465 55.7006 69.3075 55.8263 69.1951 55.9949C69.0828 56.1634 68.9985 56.3764 68.9423 56.6336C68.8891 56.8879 68.8625 57.1866 68.8625 57.5296V57.9865C68.8625 58.3207 68.8876 58.6149 68.9379 58.8692C68.9881 59.1206 69.065 59.3335 69.1685 59.508C69.275 59.6795 69.411 59.8096 69.5766 59.8983C69.7452 59.9841 69.9477 60.027 70.1843 60.027C70.4623 60.027 70.6915 59.9826 70.8718 59.8939C71.0522 59.8052 71.1897 59.6736 71.2844 59.4991C71.382 59.3246 71.4396 59.1073 71.4574 58.847ZM76.2834 55.6356L74.5269 60.9895H73.1119L75.5116 54.5311H76.4121L76.2834 55.6356ZM77.7428 60.9895L75.9818 55.6356L75.8399 54.5311H76.7492L79.1622 60.9895H77.7428ZM77.6629 58.5853V59.6277H74.2519V58.5853H77.6629ZM83.9129 59.9515V60.9895H80.6615V59.9515H83.9129ZM81.0917 54.5311V60.9895H79.761V54.5311H81.0917ZM90.6818 58.847H92.0081C91.9814 59.2817 91.8617 59.6677 91.6488 60.0048C91.4388 60.3419 91.1446 60.6051 90.7661 60.7943C90.3905 60.9836 89.9381 61.0782 89.4087 61.0782C88.9947 61.0782 88.6236 61.0072 88.2954 60.8653C87.9671 60.7204 87.6862 60.5134 87.4526 60.2443C87.2219 59.9752 87.046 59.6499 86.9247 59.2684C86.8035 58.887 86.7429 58.4597 86.7429 57.9865V57.5385C86.7429 57.0654 86.805 56.6381 86.9292 56.2566C87.0563 55.8722 87.2367 55.5454 87.4703 55.2763C87.7069 55.0072 87.9893 54.8002 88.3175 54.6553C88.6458 54.5104 89.0125 54.4379 89.4176 54.4379C89.9558 54.4379 90.4097 54.5355 90.7794 54.7307C91.152 54.9259 91.4403 55.195 91.6443 55.538C91.8513 55.881 91.9755 56.2714 92.0169 56.709H90.6862C90.6714 56.4488 90.6197 56.2285 90.531 56.0481C90.4422 55.8648 90.3077 55.7273 90.1273 55.6356C89.9499 55.541 89.7133 55.4936 89.4176 55.4936C89.1958 55.4936 89.0021 55.535 88.8365 55.6178C88.6709 55.7006 88.5319 55.8263 88.4196 55.9949C88.3072 56.1634 88.2229 56.3764 88.1667 56.6336C88.1135 56.8879 88.0869 57.1866 88.0869 57.5296V57.9865C88.0869 58.3207 88.112 58.6149 88.1623 58.8692C88.2126 59.1206 88.2894 59.3335 88.3929 59.508C88.4994 59.6795 88.6354 59.8096 88.801 59.8983C88.9696 59.9841 89.1722 60.027 89.4087 60.027C89.6867 60.027 89.9159 59.9826 90.0963 59.8939C90.2766 59.8052 90.4142 59.6736 90.5088 59.4991C90.6064 59.3246 90.664 59.1073 90.6818 58.847ZM97.0337 59.9515V60.9895H93.7823V59.9515H97.0337ZM94.2126 54.5311V60.9895H92.8819V54.5311H94.2126ZM99.2117 54.5311V60.9895H97.8854V54.5311H99.2117ZM105.714 54.5311V60.9895H104.384L101.789 56.6602V60.9895H100.458V54.5311H101.789L104.388 58.8648V54.5311H105.714ZM108.287 54.5311V60.9895H106.961V54.5311H108.287ZM113.277 58.847H114.604C114.577 59.2817 114.457 59.6677 114.244 60.0048C114.034 60.3419 113.74 60.6051 113.362 60.7943C112.986 60.9836 112.534 61.0782 112.004 61.0782C111.59 61.0782 111.219 61.0072 110.891 60.8653C110.563 60.7204 110.282 60.5134 110.048 60.2443C109.817 59.9752 109.642 59.6499 109.52 59.2684C109.399 58.887 109.338 58.4597 109.338 57.9865V57.5385C109.338 57.0654 109.401 56.6381 109.525 56.2566C109.652 55.8722 109.832 55.5454 110.066 55.2763C110.302 55.0072 110.585 54.8002 110.913 54.6553C111.241 54.5104 111.608 54.4379 112.013 54.4379C112.551 54.4379 113.005 54.5355 113.375 54.7307C113.748 54.9259 114.036 55.195 114.24 55.538C114.447 55.881 114.571 56.2714 114.613 56.709H113.282C113.267 56.4488 113.215 56.2285 113.127 56.0481C113.038 55.8648 112.903 55.7273 112.723 55.6356C112.545 55.541 112.309 55.4936 112.013 55.4936C111.791 55.4936 111.598 55.535 111.432 55.6178C111.266 55.7006 111.128 55.8263 111.015 55.9949C110.903 56.1634 110.818 56.3764 110.762 56.6336C110.709 56.8879 110.682 57.1866 110.682 57.5296V57.9865C110.682 58.3207 110.708 58.6149 110.758 58.8692C110.808 59.1206 110.885 59.3335 110.989 59.508C111.095 59.6795 111.231 59.8096 111.397 59.8983C111.565 59.9841 111.768 60.027 112.004 60.027C112.282 60.027 112.511 59.9826 112.692 59.8939C112.872 59.8052 113.01 59.6736 113.104 59.4991C113.202 59.3246 113.26 59.1073 113.277 58.847ZM118.84 59.2995C118.84 59.1842 118.822 59.0807 118.787 58.989C118.754 58.8944 118.692 58.8086 118.6 58.7317C118.509 58.6519 118.38 58.5735 118.214 58.4966C118.049 58.4197 117.834 58.3399 117.571 58.2571C117.278 58.1625 117 58.056 116.737 57.9377C116.477 57.8194 116.246 57.6819 116.045 57.5252C115.847 57.3655 115.69 57.1807 115.575 56.9707C115.463 56.7608 115.406 56.5168 115.406 56.2388C115.406 55.9697 115.466 55.7258 115.584 55.5069C115.702 55.2852 115.868 55.0959 116.081 54.9392C116.294 54.7795 116.545 54.6568 116.835 54.571C117.128 54.4853 117.448 54.4424 117.797 54.4424C118.273 54.4424 118.689 54.5281 119.044 54.6996C119.399 54.8712 119.674 55.1063 119.869 55.4049C120.067 55.7036 120.166 56.0452 120.166 56.4296H118.844C118.844 56.2403 118.804 56.0747 118.724 55.9328C118.648 55.7879 118.529 55.674 118.37 55.5912C118.213 55.5084 118.015 55.467 117.775 55.467C117.545 55.467 117.352 55.5025 117.199 55.5735C117.045 55.6415 116.929 55.7346 116.853 55.8529C116.776 55.9683 116.737 56.0984 116.737 56.2433C116.737 56.3527 116.764 56.4518 116.817 56.5405C116.873 56.6292 116.956 56.712 117.065 56.7889C117.175 56.8658 117.309 56.9382 117.469 57.0062C117.629 57.0742 117.814 57.1408 118.024 57.2058C118.375 57.3123 118.684 57.4321 118.951 57.5651C119.22 57.6982 119.444 57.8475 119.625 58.0131C119.805 58.1787 119.941 58.3665 120.033 58.5765C120.125 58.7864 120.17 59.0245 120.17 59.2906C120.17 59.5715 120.116 59.8229 120.006 60.0447C119.897 60.2665 119.739 60.4543 119.532 60.608C119.325 60.7618 119.078 60.8786 118.791 60.9585C118.504 61.0383 118.183 61.0782 117.828 61.0782C117.509 61.0782 117.194 61.0368 116.884 60.954C116.573 60.8683 116.291 60.7396 116.036 60.5681C115.785 60.3966 115.584 60.1778 115.433 59.9116C115.282 59.6455 115.207 59.3305 115.207 58.9668H116.542C116.542 59.1679 116.573 59.3379 116.635 59.4769C116.697 59.6159 116.785 59.7283 116.897 59.814C117.012 59.8998 117.148 59.9619 117.305 60.0003C117.465 60.0388 117.639 60.058 117.828 60.058C118.059 60.058 118.248 60.0255 118.396 59.9604C118.547 59.8954 118.658 59.8052 118.729 59.6898C118.803 59.5745 118.84 59.4444 118.84 59.2995Z" fill="white"/>
</svg>
